# xmcd
#
# Track frame offsets: 
#        150
#        21893
#        39754
#        52607
#        69271
#        91288
#        107887
#        130378
#        150145
#        167228
#        191278
#        207591
#        224444
#
# Disc length: 3308 seconds
#
# Revision: 2
# Processed by: cddbd v1.5.2PL0 Copyright (c) Steve Scherf et al.
# Submitted via: ExactAudioCopy v0.99pb5
#
DISCID=a40cea0d
DTITLE=Cana Santa - Sonero 100 Prozent
DYEAR=2003
DGENRE=Salsa
TTITLE0=Por Que tu pides
TTITLE1=Por borracho
TTITLE2=Detenta
TTITLE3=Mi Caballito
TTITLE4=Son para un amigo
TTITLE5=Eres Cuba
TTITLE6=Que tu tienes Mujer
TTITLE7=Son para los treseros
TTITLE8=El viejo
TTITLE9=Si yo alcanzara
TTITLE10=Quien me quiera
TTITLE11=Yo quisera bailar con usted
TTITLE12=Cana Santa
EXTD=
EXTT0=
EXTT1=
EXTT2=
EXTT3=
EXTT4=
EXTT5=
EXTT6=
EXTT7=
EXTT8=
EXTT9=
EXTT10=
EXTT11=
EXTT12=
PLAYORDER=
